<svg xmlns="http://www.w3.org/2000/svg" viewBox="0 0 18 18">
  <rect width="18" height="18" rx="3" fill="#0e0c0a"/>
  <rect x="0.75" y="0.75" width="16.5" height="16.5" rx="2.25" fill="none" stroke="#d4b24a" stroke-width="0.75"/>
  <!-- 5x5 nonogram cells: 2px tiles, 1px gutters, 2px inset. Amber heart. -->
  <g fill="#1c1612">
    <rect x="2" y="2" width="2" height="2"/>
    <rect x="8" y="2" width="2" height="2"/>
    <rect x="14" y="2" width="2" height="2"/>
    <rect x="2" y="11" width="2" height="2"/>
    <rect x="14" y="11" width="2" height="2"/>
    <rect x="2" y="14" width="2" height="2"/>
    <rect x="5" y="14" width="2" height="2"/>
    <rect x="11" y="14" width="2" height="2"/>
    <rect x="14" y="14" width="2" height="2"/>
  </g>
  <g fill="#d4b24a">
    <rect x="5" y="2" width="2" height="2"/>
    <rect x="11" y="2" width="2" height="2"/>
    <rect x="2" y="5" width="2" height="2"/>
    <rect x="5" y="5" width="2" height="2"/>
    <rect x="8" y="5" width="2" height="2"/>
    <rect x="11" y="5" width="2" height="2"/>
    <rect x="14" y="5" width="2" height="2"/>
    <rect x="2" y="8" width="2" height="2"/>
    <rect x="5" y="8" width="2" height="2"/>
    <rect x="8" y="8" width="2" height="2"/>
    <rect x="11" y="8" width="2" height="2"/>
    <rect x="14" y="8" width="2" height="2"/>
    <rect x="5" y="11" width="2" height="2"/>
    <rect x="8" y="11" width="2" height="2"/>
    <rect x="11" y="11" width="2" height="2"/>
    <rect x="8" y="14" width="2" height="2"/>
  </g>
</svg>
